<mxfile host="app.diagrams.net" agent="Mozilla/5.0 (Windows NT 10.0; Win64; x64) AppleWebKit/537.36 (KHTML, like Gecko) Chrome/136.0.0.0 Safari/537.36" version="26.3.0">
  <diagram id="R2lEEEUBdFMjLlhIrx00" name="Page-1">
    <mxGraphModel dx="1426" dy="785" grid="1" gridSize="10" guides="1" tooltips="1" connect="1" arrows="1" fold="1" page="1" pageScale="1" pageWidth="850" pageHeight="1100" background="#ffffff" math="0" shadow="1" extFonts="Permanent Marker^https://fonts.googleapis.com/css?family=Permanent+Marker">
      <root>
        <mxCell id="0" />
        <mxCell id="1" parent="0" />
        <mxCell id="chE9sQuaVVg3nJ_ConlL-88" value="PATIENTS" style="swimlane;fontStyle=0;childLayout=stackLayout;horizontal=1;startSize=30;horizontalStack=0;resizeParent=1;resizeParentMax=0;resizeLast=0;collapsible=1;marginBottom=0;whiteSpace=wrap;html=1;labelBackgroundColor=none;fillColor=#F2CC8F;strokeColor=#E07A5F;fontColor=#393C56;" vertex="1" parent="1">
          <mxGeometry x="80" y="40" width="160" height="140" as="geometry">
            <mxRectangle x="100" y="60" width="100" height="30" as="alternateBounds" />
          </mxGeometry>
        </mxCell>
        <mxCell id="chE9sQuaVVg3nJ_ConlL-89" value="Patient_Id&lt;div&gt;Full_name&lt;div&gt;Email&lt;/div&gt;&lt;div&gt;Phone&lt;/div&gt;&lt;/div&gt;&lt;div&gt;Gender&lt;/div&gt;&lt;div&gt;Date&lt;/div&gt;" style="text;strokeColor=none;fillColor=none;align=center;verticalAlign=middle;spacingLeft=4;spacingRight=4;overflow=hidden;points=[[0,0.5],[1,0.5]];portConstraint=eastwest;rotatable=0;whiteSpace=wrap;html=1;labelBackgroundColor=none;fontColor=#393C56;" vertex="1" parent="chE9sQuaVVg3nJ_ConlL-88">
          <mxGeometry y="30" width="160" height="110" as="geometry" />
        </mxCell>
        <mxCell id="chE9sQuaVVg3nJ_ConlL-92" value="DOCTORS" style="swimlane;fontStyle=0;childLayout=stackLayout;horizontal=1;startSize=30;horizontalStack=0;resizeParent=1;resizeParentMax=0;resizeLast=0;collapsible=1;marginBottom=0;whiteSpace=wrap;html=1;labelBackgroundColor=none;fillColor=#F2CC8F;strokeColor=#E07A5F;fontColor=#393C56;" vertex="1" parent="1">
          <mxGeometry x="320" y="40" width="160" height="140" as="geometry" />
        </mxCell>
        <mxCell id="chE9sQuaVVg3nJ_ConlL-93" value="Doctor_id&lt;div&gt;Full_name&lt;/div&gt;&lt;div&gt;Speciality&lt;/div&gt;&lt;div&gt;Email&lt;/div&gt;" style="text;strokeColor=none;fillColor=none;align=center;verticalAlign=middle;spacingLeft=4;spacingRight=4;overflow=hidden;points=[[0,0.5],[1,0.5]];portConstraint=eastwest;rotatable=0;whiteSpace=wrap;html=1;labelBackgroundColor=none;fontColor=#393C56;" vertex="1" parent="chE9sQuaVVg3nJ_ConlL-92">
          <mxGeometry y="30" width="160" height="110" as="geometry" />
        </mxCell>
        <mxCell id="chE9sQuaVVg3nJ_ConlL-96" value="SERVICES" style="swimlane;fontStyle=0;childLayout=stackLayout;horizontal=1;startSize=30;horizontalStack=0;resizeParent=1;resizeParentMax=0;resizeLast=0;collapsible=1;marginBottom=0;whiteSpace=wrap;html=1;labelBackgroundColor=none;fillColor=#F2CC8F;strokeColor=#E07A5F;fontColor=#393C56;" vertex="1" parent="1">
          <mxGeometry x="560" y="40" width="160" height="120" as="geometry" />
        </mxCell>
        <mxCell id="chE9sQuaVVg3nJ_ConlL-97" value="Service_id&lt;div&gt;Service_name&lt;/div&gt;&lt;div&gt;Description&lt;/div&gt;&lt;div&gt;Price&lt;/div&gt;" style="text;strokeColor=none;fillColor=none;align=center;verticalAlign=middle;spacingLeft=4;spacingRight=4;overflow=hidden;points=[[0,0.5],[1,0.5]];portConstraint=eastwest;rotatable=0;whiteSpace=wrap;html=1;labelBackgroundColor=none;fontColor=#393C56;" vertex="1" parent="chE9sQuaVVg3nJ_ConlL-96">
          <mxGeometry y="30" width="160" height="90" as="geometry" />
        </mxCell>
        <mxCell id="chE9sQuaVVg3nJ_ConlL-100" value="APPOINTMENTS" style="swimlane;fontStyle=0;childLayout=stackLayout;horizontal=1;startSize=30;horizontalStack=0;resizeParent=1;resizeParentMax=0;resizeLast=0;collapsible=1;marginBottom=0;whiteSpace=wrap;html=1;labelBackgroundColor=none;fillColor=#F2CC8F;strokeColor=#E07A5F;fontColor=#393C56;" vertex="1" parent="1">
          <mxGeometry x="320" y="320" width="240" height="190" as="geometry" />
        </mxCell>
        <mxCell id="chE9sQuaVVg3nJ_ConlL-101" value="Appointment_id&lt;div&gt;Patient_id&lt;/div&gt;&lt;div&gt;Doctors_id&lt;/div&gt;&lt;div&gt;Service_id&lt;/div&gt;&lt;div&gt;appointment_date&lt;/div&gt;&lt;div&gt;status&lt;/div&gt;" style="text;strokeColor=none;fillColor=none;align=center;verticalAlign=middle;spacingLeft=4;spacingRight=4;overflow=hidden;points=[[0,0.5],[1,0.5]];portConstraint=eastwest;rotatable=0;whiteSpace=wrap;html=1;labelBackgroundColor=none;fontColor=#393C56;" vertex="1" parent="chE9sQuaVVg3nJ_ConlL-100">
          <mxGeometry y="30" width="240" height="160" as="geometry" />
        </mxCell>
        <mxCell id="chE9sQuaVVg3nJ_ConlL-104" value="PAYMENTS" style="swimlane;fontStyle=0;childLayout=stackLayout;horizontal=1;startSize=30;horizontalStack=0;resizeParent=1;resizeParentMax=0;resizeLast=0;collapsible=1;marginBottom=0;whiteSpace=wrap;html=1;labelBackgroundColor=none;fillColor=#F2CC8F;strokeColor=#E07A5F;fontColor=#393C56;" vertex="1" parent="1">
          <mxGeometry x="320" y="640" width="240" height="200" as="geometry" />
        </mxCell>
        <mxCell id="chE9sQuaVVg3nJ_ConlL-105" value="&lt;font style=&quot;font-size: 12px;&quot;&gt;Payment_id&lt;/font&gt;&lt;div&gt;&lt;font size=&quot;3&quot;&gt;Appointment_id&lt;/font&gt;&lt;/div&gt;&lt;div&gt;&lt;font size=&quot;3&quot;&gt;Amount_paid&lt;/font&gt;&lt;/div&gt;&lt;div&gt;&lt;font size=&quot;3&quot;&gt;Payment_id&lt;/font&gt;&lt;/div&gt;" style="text;strokeColor=none;fillColor=none;align=center;verticalAlign=middle;spacingLeft=4;spacingRight=4;overflow=hidden;points=[[0,0.5],[1,0.5]];portConstraint=eastwest;rotatable=0;whiteSpace=wrap;html=1;labelBackgroundColor=none;fontColor=#393C56;" vertex="1" parent="chE9sQuaVVg3nJ_ConlL-104">
          <mxGeometry y="30" width="240" height="170" as="geometry" />
        </mxCell>
        <mxCell id="chE9sQuaVVg3nJ_ConlL-112" value="" style="edgeStyle=entityRelationEdgeStyle;fontSize=12;html=1;endArrow=ERzeroToMany;startArrow=ERmandOne;rounded=0;labelBackgroundColor=none;strokeColor=#E07A5F;fontColor=default;" edge="1" parent="1">
          <mxGeometry width="100" height="100" relative="1" as="geometry">
            <mxPoint x="190" y="180" as="sourcePoint" />
            <mxPoint x="320" y="350" as="targetPoint" />
            <Array as="points">
              <mxPoint x="190" y="170" />
              <mxPoint x="230" y="290" />
              <mxPoint x="230" y="290" />
              <mxPoint x="170" y="200" />
              <mxPoint x="190" y="200" />
              <mxPoint x="120" y="230" />
              <mxPoint x="200" y="230" />
              <mxPoint x="320" y="350" />
              <mxPoint x="120" y="190" />
              <mxPoint x="160" y="220" />
            </Array>
          </mxGeometry>
        </mxCell>
        <mxCell id="chE9sQuaVVg3nJ_ConlL-113" value="SCHEDULES" style="edgeLabel;html=1;align=center;verticalAlign=middle;resizable=0;points=[];labelBackgroundColor=none;fontColor=#393C56;" vertex="1" connectable="0" parent="chE9sQuaVVg3nJ_ConlL-112">
          <mxGeometry x="0.0089" y="-3" relative="1" as="geometry">
            <mxPoint as="offset" />
          </mxGeometry>
        </mxCell>
        <mxCell id="chE9sQuaVVg3nJ_ConlL-115" value="Z" style="edgeStyle=entityRelationEdgeStyle;fontSize=12;html=1;endArrow=ERzeroToMany;startArrow=ERmandOne;rounded=0;entryX=0.5;entryY=0;entryDx=0;entryDy=0;labelBackgroundColor=none;strokeColor=#E07A5F;fontColor=default;" edge="1" parent="1" target="chE9sQuaVVg3nJ_ConlL-100">
          <mxGeometry x="-1" y="-10" width="100" height="100" relative="1" as="geometry">
            <mxPoint x="390" y="180" as="sourcePoint" />
            <mxPoint x="436.92" y="340" as="targetPoint" />
            <Array as="points">
              <mxPoint x="400" y="180" />
              <mxPoint x="410" y="210" />
              <mxPoint x="410" y="240" />
              <mxPoint x="420" y="260" />
              <mxPoint x="420" y="240" />
              <mxPoint x="410" y="240" />
              <mxPoint x="430" y="260" />
              <mxPoint x="420" y="280" />
              <mxPoint x="480" y="250" />
              <mxPoint x="410" y="180" />
              <mxPoint x="430" y="250" />
              <mxPoint x="450" y="250" />
              <mxPoint x="410" y="290" />
              <mxPoint x="410" y="170" />
              <mxPoint x="410" y="180" />
              <mxPoint x="410" y="180" />
              <mxPoint x="390" y="160" />
              <mxPoint x="400" y="160" />
              <mxPoint x="440" y="250" />
              <mxPoint x="400" y="110" />
              <mxPoint x="473.00000000000006" y="200" />
              <mxPoint x="440" y="250" />
              <mxPoint x="473.00000000000006" y="190" />
              <mxPoint x="410" y="170" />
              <mxPoint x="453" y="250" />
              <mxPoint x="290" y="90" />
              <mxPoint x="420" y="150" />
              <mxPoint x="420" y="240" />
              <mxPoint x="310" y="90" />
            </Array>
            <mxPoint as="offset" />
          </mxGeometry>
        </mxCell>
        <mxCell id="chE9sQuaVVg3nJ_ConlL-116" value="Text" style="edgeLabel;html=1;align=center;verticalAlign=middle;resizable=0;points=[];labelBackgroundColor=none;fontColor=#393C56;" vertex="1" connectable="0" parent="chE9sQuaVVg3nJ_ConlL-115">
          <mxGeometry x="0.0288" y="2" relative="1" as="geometry">
            <mxPoint x="-153" y="-137" as="offset" />
          </mxGeometry>
        </mxCell>
        <mxCell id="chE9sQuaVVg3nJ_ConlL-122" value="CONDUCTS" style="edgeLabel;html=1;align=center;verticalAlign=middle;resizable=0;points=[];labelBackgroundColor=none;fontColor=#393C56;" vertex="1" connectable="0" parent="chE9sQuaVVg3nJ_ConlL-115">
          <mxGeometry x="0.01" y="-1" relative="1" as="geometry">
            <mxPoint as="offset" />
          </mxGeometry>
        </mxCell>
        <mxCell id="chE9sQuaVVg3nJ_ConlL-123" value="" style="edgeStyle=entityRelationEdgeStyle;fontSize=12;html=1;endArrow=ERzeroToMany;startArrow=ERmandOne;rounded=0;entryX=1.004;entryY=0.074;entryDx=0;entryDy=0;entryPerimeter=0;labelBackgroundColor=none;strokeColor=#E07A5F;fontColor=default;" edge="1" parent="1" target="chE9sQuaVVg3nJ_ConlL-100">
          <mxGeometry width="100" height="100" relative="1" as="geometry">
            <mxPoint x="590" y="160" as="sourcePoint" />
            <mxPoint x="580" y="320" as="targetPoint" />
            <Array as="points">
              <mxPoint x="600" y="220" />
              <mxPoint x="600" y="370" />
              <mxPoint x="610" y="290" />
              <mxPoint x="600" y="280" />
              <mxPoint x="620" y="280" />
              <mxPoint x="660" y="270" />
              <mxPoint x="540" y="350" />
            </Array>
          </mxGeometry>
        </mxCell>
        <mxCell id="chE9sQuaVVg3nJ_ConlL-124" value="INCLUDES" style="edgeLabel;html=1;align=center;verticalAlign=middle;resizable=0;points=[];labelBackgroundColor=none;fontColor=#393C56;" vertex="1" connectable="0" parent="chE9sQuaVVg3nJ_ConlL-123">
          <mxGeometry x="-0.0802" y="1" relative="1" as="geometry">
            <mxPoint as="offset" />
          </mxGeometry>
        </mxCell>
        <mxCell id="chE9sQuaVVg3nJ_ConlL-125" value="" style="edgeStyle=entityRelationEdgeStyle;fontSize=12;html=1;endArrow=ERzeroToMany;startArrow=ERmandOne;rounded=0;entryX=0.625;entryY=0;entryDx=0;entryDy=0;entryPerimeter=0;labelBackgroundColor=none;strokeColor=#E07A5F;fontColor=default;" edge="1" parent="1" target="chE9sQuaVVg3nJ_ConlL-104">
          <mxGeometry width="100" height="100" relative="1" as="geometry">
            <mxPoint x="420" y="510" as="sourcePoint" />
            <mxPoint x="480" y="610" as="targetPoint" />
            <Array as="points">
              <mxPoint x="420" y="530" />
              <mxPoint x="440" y="580" />
              <mxPoint x="270" y="660" />
            </Array>
          </mxGeometry>
        </mxCell>
        <mxCell id="chE9sQuaVVg3nJ_ConlL-126" value="GENERATES&lt;div&gt;&lt;br&gt;&lt;/div&gt;" style="edgeLabel;html=1;align=center;verticalAlign=middle;resizable=0;points=[];labelBackgroundColor=none;fontColor=#393C56;" vertex="1" connectable="0" parent="chE9sQuaVVg3nJ_ConlL-125">
          <mxGeometry x="0.01" y="1" relative="1" as="geometry">
            <mxPoint as="offset" />
          </mxGeometry>
        </mxCell>
      </root>
    </mxGraphModel>
  </diagram>
</mxfile>
